<svg width="70" height="30" viewBox="0 0 70 30" fill="none" xmlns="http://www.w3.org/2000/svg">
<g clip-path="url(#clip0_11001_898)">
<path d="M32.7035 8.08446C33.0994 8.08446 33.3876 8.01829 33.5681 7.88595C33.7486 7.75361 33.8389 7.56662 33.8389 7.32496C33.8389 7.18112 33.8068 7.05741 33.7428 6.95384C33.6846 6.85028 33.5972 6.75821 33.4808 6.67766C33.3702 6.59136 33.2333 6.51368 33.0703 6.44463C32.9073 6.36984 32.721 6.29791 32.5114 6.22887C32.3018 6.15407 32.098 6.07352 31.9001 5.98721C31.7079 5.89515 31.5362 5.78295 31.3848 5.65062C31.2392 5.51828 31.1199 5.36005 31.0267 5.17593C30.9394 4.99181 30.8957 4.77029 30.8957 4.51137C30.8957 3.97052 31.085 3.54762 31.4634 3.24267C31.8418 2.93197 32.3571 2.77662 33.0092 2.77662C33.3876 2.77662 33.7224 2.81977 34.0135 2.90608C34.3105 2.98663 34.5433 3.07581 34.7122 3.17363L34.3716 4.05395C34.1736 3.94463 33.9553 3.8612 33.7166 3.80366C33.4837 3.74612 33.2421 3.71736 32.9917 3.71736C32.6948 3.71736 32.4619 3.77777 32.2931 3.8986C32.13 4.01943 32.0485 4.18916 32.0485 4.40781C32.0485 4.54014 32.0747 4.65522 32.1271 4.75303C32.1854 4.84509 32.264 4.92852 32.3629 5.00332C32.4677 5.07812 32.5871 5.14716 32.721 5.21045C32.8607 5.27375 33.0121 5.33416 33.1751 5.3917C33.4604 5.49527 33.7137 5.60171 33.9349 5.71103C34.162 5.8146 34.3512 5.94118 34.5026 6.09078C34.6598 6.23462 34.7791 6.40724 34.8607 6.60862C34.9422 6.80424 34.9829 7.04303 34.9829 7.32496C34.9829 7.86581 34.7879 8.28584 34.3978 8.58503C34.0135 8.87847 33.4488 9.02519 32.7035 9.02519C32.4532 9.02519 32.2232 9.00793 32.0136 8.97341C31.8098 8.94464 31.6264 8.90724 31.4634 8.86121C31.3062 8.81518 31.1694 8.76915 31.0529 8.72312C30.9365 8.67134 30.8433 8.62531 30.7735 8.58503L31.0966 7.69608C31.2538 7.78238 31.4663 7.86869 31.7341 7.955C32.002 8.0413 32.3251 8.08446 32.7035 8.08446ZM40.0311 6.63451C40.0311 6.99124 39.9787 7.31633 39.8739 7.60977C39.7691 7.90321 39.6207 8.1535 39.4285 8.36064C39.2364 8.56777 39.0035 8.72888 38.7299 8.84395C38.462 8.95903 38.1651 9.01656 37.8391 9.01656C37.513 9.01656 37.2161 8.95903 36.9483 8.84395C36.6804 8.72888 36.4505 8.56777 36.2583 8.36064C36.0662 8.1535 35.9148 7.90321 35.8042 7.60977C35.6994 7.31633 35.647 6.99124 35.647 6.63451C35.647 6.27778 35.6994 5.95557 35.8042 5.66788C35.9148 5.37444 36.0662 5.12415 36.2583 4.91701C36.4563 4.70988 36.6892 4.55165 36.957 4.44233C37.2248 4.32725 37.5188 4.26972 37.8391 4.26972C38.1593 4.26972 38.4533 4.32725 38.7211 4.44233C38.9948 4.55165 39.2277 4.70988 39.4198 4.91701C39.6119 5.12415 39.7604 5.37444 39.8652 5.66788C39.9758 5.95557 40.0311 6.27778 40.0311 6.63451ZM38.9482 6.63451C38.9482 6.18572 38.8492 5.83186 38.6513 5.57294C38.4591 5.30827 38.1884 5.17593 37.8391 5.17593C37.4897 5.17593 37.2161 5.30827 37.0181 5.57294C36.826 5.83186 36.7299 6.18572 36.7299 6.63451C36.7299 7.08906 36.826 7.44867 37.0181 7.71334C37.2161 7.97801 37.4897 8.11035 37.8391 8.11035C38.1884 8.11035 38.4591 7.97801 38.6513 7.71334C38.8492 7.44867 38.9482 7.08906 38.9482 6.63451ZM42.7092 8.98204C42.3948 8.97629 42.1328 8.94176 41.9232 8.87847C41.7194 8.81518 41.5564 8.726 41.4342 8.61092C41.3119 8.4901 41.2246 8.34337 41.1722 8.17076C41.1256 7.99239 41.1023 7.79101 41.1023 7.56662V2.37098L42.159 2.19836V7.36811C42.159 7.4947 42.1678 7.60114 42.1852 7.68745C42.2085 7.77375 42.2464 7.84855 42.2988 7.91184C42.3512 7.96938 42.421 8.01541 42.5084 8.04993C42.6015 8.0787 42.718 8.10172 42.8577 8.11898L42.7092 8.98204ZM47.4591 8.75764C47.2553 8.80943 46.9904 8.86121 46.6644 8.913C46.3383 8.97053 45.9803 8.9993 45.5902 8.9993C45.2234 8.9993 44.9148 8.94752 44.6644 8.84395C44.4199 8.74038 44.2219 8.59654 44.0706 8.41242C43.925 8.2283 43.8202 8.00966 43.7562 7.75649C43.6921 7.49757 43.6601 7.21564 43.6601 6.91069V4.38191H44.7168V6.74671C44.7168 7.23002 44.7867 7.57525 44.9264 7.78238C45.072 7.98952 45.3223 8.09309 45.6775 8.09309C45.8056 8.09309 45.9395 8.08733 46.0792 8.07582C46.2248 8.06432 46.3325 8.04993 46.4024 8.03267V4.38191H47.4591V8.75764ZM49.9481 8.14487C50.2276 8.14487 50.4314 8.11322 50.5595 8.04993C50.6876 7.98089 50.7516 7.86581 50.7516 7.70471C50.7516 7.55511 50.6817 7.4314 50.542 7.33359C50.4081 7.23578 50.1839 7.12933 49.8695 7.01426C49.6774 6.94521 49.4998 6.87329 49.3368 6.79849C49.1796 6.71794 49.0428 6.62588 48.9263 6.52231C48.8099 6.41874 48.7167 6.29504 48.6469 6.15119C48.5828 6.0016 48.5508 5.82035 48.5508 5.60746C48.5508 5.19319 48.7051 4.86811 49.0137 4.6322C49.3223 4.39054 49.7415 4.26972 50.2713 4.26972C50.5391 4.26972 50.7953 4.29561 51.0398 4.34739C51.2843 4.39342 51.4677 4.43945 51.59 4.48548L51.3979 5.33128C51.2814 5.2795 51.133 5.23347 50.9525 5.19319C50.772 5.14716 50.5624 5.12415 50.3237 5.12415C50.1083 5.12415 49.9336 5.16155 49.7997 5.23635C49.6658 5.30539 49.5988 5.41471 49.5988 5.56431C49.5988 5.63911 49.6105 5.70528 49.6337 5.76282C49.6629 5.82035 49.7094 5.87501 49.7735 5.9268C49.8375 5.97283 49.9219 6.02173 50.0267 6.07352C50.1315 6.11955 50.2596 6.16846 50.411 6.22024C50.6614 6.3123 50.8739 6.40436 51.0485 6.49642C51.2232 6.58273 51.3659 6.68342 51.4765 6.79849C51.5929 6.90781 51.6773 7.0344 51.7297 7.17824C51.7821 7.32208 51.8083 7.4947 51.8083 7.69608C51.8083 8.12761 51.6453 8.45557 51.3193 8.67997C50.9991 8.89861 50.5391 9.00793 49.9394 9.00793C49.5377 9.00793 49.2145 8.97341 48.97 8.90437C48.7255 8.84107 48.5537 8.78929 48.4548 8.74901L48.6381 7.87732C48.7953 7.94061 48.9817 8.00103 49.1971 8.05856C49.4183 8.1161 49.6687 8.14487 49.9481 8.14487ZM53.8609 8.89573H52.8042V4.38191H53.8609V8.89573ZM53.9744 3.06143C53.9744 3.25706 53.9104 3.41241 53.7823 3.52748C53.6542 3.64256 53.5028 3.70009 53.3282 3.70009C53.1477 3.70009 52.9934 3.64256 52.8653 3.52748C52.7372 3.41241 52.6732 3.25706 52.6732 3.06143C52.6732 2.86005 52.7372 2.70182 52.8653 2.58674C52.9934 2.47167 53.1477 2.41413 53.3282 2.41413C53.5028 2.41413 53.6542 2.47167 53.7823 2.58674C53.9104 2.70182 53.9744 2.86005 53.9744 3.06143ZM35.4545 12.6961V13.6368H33.5943V18.6771H32.4852V13.6368H30.625V12.6961H35.4545ZM35.5105 16.4418C35.5105 16.0448 35.5688 15.6967 35.6852 15.3975C35.8075 15.0983 35.9676 14.8509 36.1655 14.6552C36.3635 14.4539 36.5906 14.3043 36.8467 14.2064C37.1029 14.1029 37.3649 14.0511 37.6327 14.0511C38.2615 14.0511 38.7506 14.2438 39.0999 14.6294C39.4551 15.0149 39.6327 15.5902 39.6327 16.3555C39.6327 16.413 39.6297 16.4792 39.6239 16.554C39.6239 16.623 39.621 16.6863 39.6152 16.7439H36.6022C36.6313 17.1063 36.7594 17.3883 36.9865 17.5897C37.2193 17.7853 37.5541 17.8831 37.9908 17.8831C38.247 17.8831 38.4799 17.8601 38.6895 17.8141C38.9049 17.768 39.0737 17.7191 39.196 17.6673L39.3357 18.5218C39.2775 18.5505 39.196 18.5822 39.0912 18.6167C38.9922 18.6455 38.8758 18.6714 38.7419 18.6944C38.6138 18.7231 38.474 18.7462 38.3227 18.7634C38.1713 18.7807 38.017 18.7893 37.8598 18.7893C37.4581 18.7893 37.1087 18.7318 36.8118 18.6167C36.5149 18.4959 36.2703 18.3319 36.0782 18.1248C35.8861 17.9119 35.7434 17.6645 35.6503 17.3825C35.5571 17.0948 35.5105 16.7813 35.5105 16.4418ZM38.5759 15.9757C38.5759 15.8319 38.5555 15.6967 38.5148 15.5701C38.474 15.4378 38.4129 15.3256 38.3314 15.2335C38.2557 15.1357 38.1596 15.0609 38.0432 15.0091C37.9326 14.9516 37.7987 14.9228 37.6415 14.9228C37.4784 14.9228 37.3358 14.9544 37.2135 15.0177C37.0913 15.0753 36.9865 15.1529 36.8991 15.2508C36.8176 15.3486 36.7536 15.4608 36.707 15.5873C36.6604 15.7139 36.6284 15.8434 36.6109 15.9757H38.5759ZM41.8098 15.9239C41.9437 15.7859 42.0863 15.6391 42.2377 15.4838C42.3891 15.3227 42.5375 15.1644 42.6831 15.0091C42.8286 14.848 42.9655 14.6955 43.0935 14.5517C43.2275 14.4021 43.341 14.2726 43.4341 14.1633H44.683C44.3919 14.4855 44.0833 14.8192 43.7573 15.1644C43.4371 15.5097 43.1139 15.8463 42.7879 16.1742C42.9625 16.3181 43.1459 16.4936 43.3381 16.7007C43.5302 16.9021 43.7165 17.1178 43.897 17.348C44.0775 17.5781 44.2463 17.8083 44.4035 18.0384C44.5607 18.2686 44.6917 18.4815 44.7965 18.6771H43.5739C43.4691 18.4988 43.3468 18.3118 43.2071 18.1161C43.0732 17.9205 42.9276 17.7306 42.7704 17.5465C42.6132 17.3624 42.4531 17.1898 42.2901 17.0287C42.1271 16.8618 41.967 16.7208 41.8098 16.6058V18.6771H40.753V12.1524L41.8098 11.9797V15.9239ZM45.5632 14.31C45.767 14.2525 46.0319 14.1978 46.3579 14.146C46.684 14.0943 47.045 14.0684 47.4409 14.0684C47.8135 14.0684 48.125 14.1201 48.3753 14.2237C48.6257 14.3215 48.8236 14.4625 48.9692 14.6466C49.1206 14.825 49.2254 15.0436 49.2836 15.3025C49.3476 15.5557 49.3797 15.8348 49.3797 16.1397V18.6771H48.3229V16.3037C48.3229 16.062 48.3055 15.8578 48.2705 15.6909C48.2414 15.5183 48.189 15.3802 48.1133 15.2766C48.0435 15.1673 47.9445 15.0897 47.8164 15.0436C47.6941 14.9918 47.5428 14.9659 47.3623 14.9659C47.2284 14.9659 47.0886 14.9746 46.9431 14.9918C46.7975 15.0091 46.6898 15.0235 46.6199 15.035V18.6771H45.5632V14.31ZM54.8027 16.4159C54.8027 16.7726 54.7503 17.0977 54.6455 17.3912C54.5407 17.6846 54.3922 17.9349 54.2001 18.142C54.008 18.3492 53.7751 18.5103 53.5014 18.6253C53.2336 18.7404 52.9367 18.7979 52.6106 18.7979C52.2846 18.7979 51.9877 18.7404 51.7198 18.6253C51.452 18.5103 51.222 18.3492 51.0299 18.142C50.8378 17.9349 50.6864 17.6846 50.5758 17.3912C50.471 17.0977 50.4186 16.7726 50.4186 16.4159C50.4186 16.0592 50.471 15.7369 50.5758 15.4493C50.6864 15.1558 50.8378 14.9055 51.0299 14.6984C51.2279 14.4913 51.4608 14.333 51.7286 14.2237C51.9964 14.1086 52.2904 14.0511 52.6106 14.0511C52.9309 14.0511 53.2249 14.1086 53.4927 14.2237C53.7664 14.333 53.9992 14.4913 54.1914 14.6984C54.3835 14.9055 54.532 15.1558 54.6368 15.4493C54.7474 15.7369 54.8027 16.0592 54.8027 16.4159ZM53.7198 16.4159C53.7198 15.9671 53.6208 15.6132 53.4228 15.3543C53.2307 15.0897 52.96 14.9573 52.6106 14.9573C52.2613 14.9573 51.9877 15.0897 51.7897 15.3543C51.5976 15.6132 51.5015 15.9671 51.5015 16.4159C51.5015 16.8704 51.5976 17.23 51.7897 17.4947C51.9877 17.7594 52.2613 17.8917 52.6106 17.8917C52.96 17.8917 53.2307 17.7594 53.4228 17.4947C53.6208 17.23 53.7198 16.8704 53.7198 16.4159ZM57.4811 18.7634C57.1667 18.7577 56.9047 18.7231 56.6948 18.6599C56.491 18.5966 56.328 18.5074 56.2057 18.3923C56.0835 18.2715 55.9961 18.1248 55.9437 17.9521C55.8972 17.7738 55.8739 17.5724 55.8739 17.348V12.1524L56.9309 11.9797V17.1495C56.9309 17.2761 56.9396 17.3825 56.9571 17.4688C56.9804 17.5551 57.0182 17.6299 57.0706 17.6932C57.123 17.7508 57.1929 17.7968 57.2802 17.8313C57.3734 17.8601 57.4898 17.8831 57.6296 17.9004L57.4811 18.7634ZM62.6151 16.4159C62.6151 16.7726 62.5627 17.0977 62.4579 17.3912C62.3531 17.6846 62.2047 17.9349 62.0125 18.142C61.8204 18.3492 61.5875 18.5103 61.3139 18.6253C61.046 18.7404 60.7491 18.7979 60.4231 18.7979C60.097 18.7979 59.8001 18.7404 59.5323 18.6253C59.2644 18.5103 59.0345 18.3492 58.8423 18.142C58.6502 17.9349 58.4988 17.6846 58.3882 17.3912C58.2834 17.0977 58.231 16.7726 58.231 16.4159C58.231 16.0592 58.2834 15.7369 58.3882 15.4493C58.4988 15.1558 58.6502 14.9055 58.8423 14.6984C59.0403 14.4913 59.2732 14.333 59.541 14.2237C59.8088 14.1086 60.1028 14.0511 60.4231 14.0511C60.7433 14.0511 61.0373 14.1086 61.3051 14.2237C61.5788 14.333 61.8116 14.4913 62.0038 14.6984C62.1959 14.9055 62.3444 15.1558 62.4492 15.4493C62.5598 15.7369 62.6151 16.0592 62.6151 16.4159ZM61.5322 16.4159C61.5322 15.9671 61.4332 15.6132 61.2353 15.3543C61.0431 15.0897 60.7724 14.9573 60.4231 14.9573C60.0737 14.9573 59.8001 15.0897 59.6021 15.3543C59.41 15.6132 59.3139 15.9671 59.3139 16.4159C59.3139 16.8704 59.41 17.23 59.6021 17.4947C59.8001 17.7594 60.0737 17.8917 60.4231 17.8917C60.7724 17.8917 61.0431 17.7594 61.2353 17.4947C61.4332 17.23 61.5322 16.8704 61.5322 16.4159ZM64.5329 16.3037C64.5329 16.7467 64.629 17.0718 64.8211 17.279C65.0191 17.4803 65.2724 17.581 65.5809 17.581C65.7498 17.581 65.907 17.558 66.0525 17.512C66.2039 17.466 66.3262 17.4113 66.4193 17.348V15.0091C66.3437 14.9918 66.2505 14.9775 66.1399 14.9659C66.0293 14.9487 65.8895 14.9401 65.7207 14.9401C65.3364 14.9401 65.0424 15.0666 64.8386 15.3198C64.6348 15.5672 64.5329 15.8952 64.5329 16.3037ZM67.4761 18.2197C67.4761 18.9389 67.2898 19.4654 66.9171 19.7991C66.5503 20.1328 65.9856 20.2997 65.2229 20.2997C64.9434 20.2997 64.6698 20.2767 64.402 20.2306C64.1399 20.1846 63.9012 20.1242 63.6858 20.0494L63.8779 19.1604C64.0584 19.2352 64.2622 19.2956 64.4893 19.3417C64.7222 19.3877 64.9725 19.4107 65.2403 19.4107C65.6654 19.4107 65.9681 19.3244 66.1486 19.1518C66.3291 18.9792 66.4193 18.7231 66.4193 18.3837V18.2111C66.3145 18.2628 66.1748 18.3146 66.0001 18.3664C65.8313 18.4182 65.6363 18.4441 65.415 18.4441C65.1239 18.4441 64.8561 18.3981 64.6115 18.306C64.3728 18.2139 64.1661 18.0787 63.9915 17.9004C63.8226 17.722 63.6887 17.5005 63.5898 17.2358C63.4966 16.9654 63.45 16.6547 63.45 16.3037C63.45 15.9757 63.4995 15.6737 63.5985 15.3975C63.7033 15.1213 63.8518 14.8854 64.0439 14.6898C64.2418 14.4941 64.4805 14.3417 64.76 14.2323C65.0395 14.123 65.3568 14.0684 65.7119 14.0684C66.0555 14.0684 66.3815 14.0943 66.6901 14.146C66.9987 14.1978 67.2607 14.2525 67.4761 14.31V18.2197ZM69.8865 18.6771H68.8297V14.1633H69.8865V18.6771ZM70 12.8428C70 13.0384 69.936 13.1938 69.8079 13.3089C69.6798 13.4239 69.5284 13.4815 69.3537 13.4815C69.1732 13.4815 69.019 13.4239 68.8909 13.3089C68.7628 13.1938 68.6987 13.0384 68.6987 12.8428C68.6987 12.6414 68.7628 12.4832 68.8909 12.3681C69.019 12.253 69.1732 12.1955 69.3537 12.1955C69.5284 12.1955 69.6798 12.253 69.8079 12.3681C69.936 12.4832 70 12.6414 70 12.8428ZM34.8519 28.4585C34.7005 28.2283 34.5259 27.9867 34.3279 27.7335C34.13 27.4804 33.9204 27.2358 33.6991 26.9999C33.4837 26.764 33.2595 26.5396 33.0267 26.3267C32.7938 26.1138 32.5638 25.9297 32.3367 25.7744V28.4585H31.2363V22.4775H32.3367V24.9458C32.5289 24.756 32.7297 24.5546 32.9393 24.3417C33.1489 24.123 33.3556 23.9044 33.5594 23.6858C33.769 23.4614 33.9669 23.2456 34.1533 23.0385C34.3396 22.8313 34.5084 22.6443 34.6598 22.4775H35.9785C35.7864 22.6961 35.5826 22.9234 35.3672 23.1593C35.1518 23.3952 34.9305 23.634 34.7035 23.8756C34.4764 24.1115 34.2464 24.3474 34.0135 24.5833C33.7865 24.8192 33.5623 25.0436 33.3411 25.2565C33.5856 25.4407 33.833 25.6564 34.0834 25.9038C34.3396 26.1455 34.5899 26.4073 34.8345 26.6892C35.079 26.9654 35.3119 27.256 35.5331 27.5609C35.7602 27.8601 35.9669 28.1593 36.1532 28.4585H34.8519ZM39.475 24.8854C39.3877 24.8566 39.2654 24.8279 39.1082 24.7991C38.9569 24.7646 38.7793 24.7473 38.5755 24.7473C38.4591 24.7473 38.3339 24.7588 38.2 24.7819C38.0719 24.8049 37.9817 24.825 37.9293 24.8423V28.4585H36.8725V24.1604C37.0763 24.0856 37.3296 24.0166 37.6323 23.9533C37.9409 23.8843 38.2815 23.8497 38.6541 23.8497C38.724 23.8497 38.8055 23.8555 38.8986 23.867C38.9918 23.8728 39.085 23.8843 39.1781 23.9015C39.2713 23.913 39.3615 23.9303 39.4488 23.9533C39.5362 23.9706 39.606 23.9878 39.6584 24.0051L39.475 24.8854ZM40.1416 26.2232C40.1416 25.8262 40.1998 25.4781 40.3162 25.1789C40.4385 24.8797 40.5986 24.6323 40.7966 24.4366C40.9945 24.2352 41.2216 24.0856 41.4778 23.9878C41.7339 23.8843 41.9959 23.8325 42.2638 23.8325C42.8926 23.8325 43.3816 24.0252 43.731 24.4107C44.0861 24.7962 44.2637 25.3716 44.2637 26.1369C44.2637 26.1944 44.2608 26.2606 44.255 26.3354C44.255 26.4044 44.2521 26.4677 44.2462 26.5252H41.2332C41.2623 26.8877 41.3904 27.1697 41.6175 27.371C41.8504 27.5667 42.1852 27.6645 42.6218 27.6645C42.878 27.6645 43.1109 27.6415 43.3205 27.5954C43.5359 27.5494 43.7048 27.5005 43.827 27.4487L43.9668 28.3031C43.9085 28.3319 43.827 28.3636 43.7222 28.3981C43.6233 28.4269 43.5068 28.4527 43.3729 28.4758C43.2448 28.5045 43.1051 28.5275 42.9537 28.5448C42.8023 28.5621 42.648 28.5707 42.4908 28.5707C42.0891 28.5707 41.7398 28.5132 41.4428 28.3981C41.1459 28.2773 40.9014 28.1133 40.7092 27.9061C40.5171 27.6933 40.3745 27.4458 40.2813 27.1639C40.1881 26.8762 40.1416 26.5626 40.1416 26.2232ZM43.207 25.7571C43.207 25.6133 43.1866 25.4781 43.1458 25.3515C43.1051 25.2191 43.0439 25.1069 42.9624 25.0149C42.8867 24.9171 42.7907 24.8423 42.6742 24.7905C42.5636 24.7329 42.4297 24.7042 42.2725 24.7042C42.1095 24.7042 41.9668 24.7358 41.8446 24.7991C41.7223 24.8566 41.6175 24.9343 41.5302 25.0321C41.4487 25.13 41.3846 25.2422 41.338 25.3687C41.2915 25.4953 41.2594 25.6248 41.242 25.7571H43.207ZM46.991 27.7249C47.317 27.7249 47.5645 27.7076 47.7333 27.6731V26.5166C47.6751 26.4993 47.5907 26.4821 47.4801 26.4648C47.3694 26.4476 47.2472 26.4389 47.1133 26.4389C46.9968 26.4389 46.8775 26.4476 46.7552 26.4648C46.6387 26.4821 46.531 26.5137 46.4321 26.5598C46.3389 26.6058 46.2632 26.672 46.205 26.7583C46.1468 26.8388 46.1177 26.9424 46.1177 27.069C46.1177 27.3164 46.1963 27.489 46.3535 27.5868C46.5107 27.6789 46.7232 27.7249 46.991 27.7249ZM46.9037 23.8325C47.253 23.8325 47.547 23.8756 47.7857 23.9619C48.0244 24.0482 48.2137 24.1691 48.3534 24.3244C48.4989 24.4798 48.6008 24.6697 48.6591 24.894C48.7231 25.1127 48.7551 25.3543 48.7551 25.619V28.3549C48.5921 28.3895 48.3447 28.4297 48.0128 28.4758C47.6867 28.5275 47.317 28.5534 46.9037 28.5534C46.63 28.5534 46.3797 28.5275 46.1526 28.4758C45.9255 28.424 45.7305 28.3405 45.5675 28.2255C45.4103 28.1104 45.2851 27.9608 45.1919 27.7767C45.1046 27.5926 45.0609 27.3653 45.0609 27.0949C45.0609 26.8359 45.1104 26.6173 45.2094 26.4389C45.3142 26.2606 45.4539 26.1167 45.6286 26.0074C45.8033 25.8923 46.0041 25.8118 46.2312 25.7657C46.4641 25.714 46.7057 25.6881 46.9561 25.6881C47.0725 25.6881 47.1948 25.6967 47.3229 25.714C47.4509 25.7255 47.5878 25.7485 47.7333 25.783V25.6104C47.7333 25.4896 47.7188 25.3745 47.6897 25.2652C47.6605 25.1558 47.6081 25.0609 47.5325 24.9804C47.4626 24.894 47.3665 24.8279 47.2443 24.7819C47.1278 24.7358 46.9793 24.7128 46.7989 24.7128C46.5543 24.7128 46.3302 24.7301 46.1264 24.7646C45.9226 24.7991 45.7567 24.8394 45.6286 24.8854L45.4976 24.0396C45.6315 23.9936 45.8265 23.9476 46.0827 23.9015C46.3389 23.8555 46.6125 23.8325 46.9037 23.8325ZM49.9968 22.7537L51.0536 22.581V23.9447H52.6779V24.8164H51.0536V26.6547C51.0536 27.0172 51.1118 27.2761 51.2282 27.4315C51.3447 27.5868 51.5426 27.6645 51.8221 27.6645C52.0142 27.6645 52.1831 27.6443 52.3286 27.6041C52.48 27.5638 52.5993 27.5264 52.6867 27.4919L52.8613 28.3204C52.7391 28.3722 52.579 28.424 52.381 28.4758C52.1831 28.5333 51.9502 28.5621 51.6823 28.5621C51.3563 28.5621 51.0827 28.5189 50.8614 28.4326C50.646 28.3463 50.4742 28.2226 50.3462 28.0615C50.2181 27.8946 50.1278 27.6961 50.0754 27.466C50.023 27.2301 49.9968 26.9625 49.9968 26.6633V22.7537ZM54.765 28.4585H53.7082V23.9447H54.765V28.4585ZM54.8785 22.6242C54.8785 22.8198 54.8145 22.9752 54.6864 23.0902C54.5583 23.2053 54.4069 23.2629 54.2322 23.2629C54.0518 23.2629 53.8975 23.2053 53.7694 23.0902C53.6413 22.9752 53.5772 22.8198 53.5772 22.6242C53.5772 22.4228 53.6413 22.2646 53.7694 22.1495C53.8975 22.0344 54.0518 21.9769 54.2322 21.9769C54.4069 21.9769 54.5583 22.0344 54.6864 22.1495C54.8145 22.2646 54.8785 22.4228 54.8785 22.6242ZM57.9731 21.7611C58.2176 21.7611 58.433 21.7841 58.6193 21.8302C58.8056 21.8704 58.9454 21.9078 59.0385 21.9424L58.8377 22.8054C58.7387 22.7594 58.6222 22.722 58.4883 22.6932C58.3602 22.6645 58.2205 22.6501 58.0691 22.6501C57.9003 22.6501 57.7576 22.676 57.6412 22.7278C57.5248 22.7738 57.4316 22.84 57.3617 22.9263C57.2919 23.0126 57.2424 23.119 57.2133 23.2456C57.1842 23.3664 57.1696 23.4988 57.1696 23.6426V23.9447H58.8289V24.8164H57.1696V28.4585H56.1131V23.6253C56.1131 23.0442 56.2674 22.5897 56.576 22.2617C56.8843 21.928 57.3501 21.7611 57.9731 21.7611Z" fill="white"/>
<path d="M6.94354 9.8485C6.42972 9.89014 5.76981 9.89014 4.92205 9.89014C2.80714 9.89014 1.09375 8.16857 1.09375 6.0445C1.09375 3.92042 2.80714 2.19836 4.92205 2.19836C7.03597 2.19836 8.75036 3.92042 8.75036 6.0445C8.75036 6.92783 8.75036 7.60793 8.70365 8.13238C8.64898 8.75201 8.52972 9.15303 8.26834 9.41278C8.00199 9.67847 7.58755 9.79595 6.94354 9.8485Z" fill="white"/>
<path d="M24.6082 9.89014C26.7221 9.89014 28.4365 8.16857 28.4365 6.0445C28.4365 3.92042 26.7221 2.19836 24.6082 2.19836C22.4933 2.19836 20.7799 3.92042 20.7799 6.0445C20.7799 7.97178 20.7789 8.93344 21.2609 9.41278C21.7409 9.89014 22.698 9.89014 24.6082 9.89014Z" fill="white"/>
<path d="M28.4375 15.9342C28.4375 18.0583 26.7231 19.7798 24.6092 19.7798H22.9743C21.9864 19.7798 20.3754 20.6716 19.4124 21.9946C18.7833 22.8581 18.3947 23.6141 18.3947 24.5326V26.0554C18.3947 28.0179 16.7995 29.6086 14.8327 29.6086C12.8659 29.6086 11.2708 28.0179 11.2708 26.0554C11.2708 24.0929 12.8659 22.5022 14.8327 22.5022H16.3593C17.3302 22.5022 18.4801 21.5574 19.4124 20.4718C19.5326 20.332 19.6499 20.1942 19.7622 20.0579C19.9252 19.8587 20.0782 19.6614 20.2134 19.4641C20.2989 19.3392 20.3774 19.2142 20.447 19.0888C20.5016 18.9912 20.5503 18.893 20.5931 18.7939C20.7123 18.5158 20.7809 18.2313 20.7809 17.9339V15.9342C20.7809 13.8101 22.4943 12.0881 24.6092 12.0881C26.7231 12.0881 28.4375 13.8101 28.4375 15.9342Z" fill="white"/>
<path d="M28.4375 25.8239C28.4375 27.948 26.7231 29.6695 24.6092 29.6695C22.4943 29.6695 20.7809 27.948 20.7809 25.8239C20.7809 23.8961 20.7809 22.9345 21.2629 22.4551C21.7429 21.9778 22.7 21.9778 24.6092 21.9778C26.7231 21.9778 28.4375 23.6998 28.4375 25.8239Z" fill="white"/>
<path d="M14.4322 9.89014C16.5461 9.89014 18.2605 8.16857 18.2605 6.0445C18.2605 3.92042 16.5461 2.19836 14.4322 2.19836C12.3173 2.19836 10.6039 3.92042 10.6039 6.0445V8.04415C10.6039 8.94583 9.96981 9.72755 9.23536 10.5821C8.30313 11.6677 7.15324 12.6125 6.18225 12.6125H4.6557C2.68888 12.6125 1.09375 14.2032 1.09375 16.1657C1.09375 18.1282 2.68888 19.7189 4.6557 19.7189C6.62253 19.7189 8.21765 18.1282 8.21765 16.1657V14.6429C8.21765 13.7244 8.60625 12.9684 9.23536 12.1049C10.1984 10.7819 11.8094 9.89014 12.7973 9.89014H14.4322Z" fill="white"/>
<path d="M18.2605 15.9327C18.2605 18.0568 16.5461 19.7784 14.4322 19.7784H12.7973C11.8094 19.7784 10.1984 20.6701 9.23536 21.9931C8.60625 22.8566 8.21765 23.6126 8.21765 24.5311V26.0539C8.21765 28.0164 6.62253 29.6071 4.6557 29.6071C2.68888 29.6071 1.09375 28.0164 1.09375 26.0539C1.09375 24.0914 2.68888 22.5007 4.6557 22.5007H6.18225C7.15324 22.5007 8.30313 21.5559 9.23536 20.4703C9.96981 19.6158 10.6039 18.834 10.6039 17.9324V15.9327C10.6039 13.8086 12.3173 12.0866 14.4322 12.0866C16.5461 12.0866 18.2605 13.8086 18.2605 15.9327Z" fill="white"/>
</g>
<defs>
<clipPath id="clip0_11001_898">
<rect width="70" height="29.6689" fill="white"/>
</clipPath>
</defs>
</svg>
